<svg xmlns="http://www.w3.org/2000/svg" width="144" height="144" version="1" viewBox="0 0 108 108"><path d="M10.5 9.1c-4.9.8-8.5 4.8-8.6 9.5C1.4 47.2 1.9 77.4 3 80c2.6 6.2 2.7 6.2 51.8 6.2 42.3-.1 44.7-.1 47.1-2 4.9-3.6 5.1-4.7 5.1-37 0-32.8-.2-34.4-5.4-37.2-2.1-1.1-10.9-1.4-45-1.4-23.3-.1-44 .2-46.1.5zm85.7 11.2c.2.7.4 13.3.4 28.2l-.1 27-40 .2c-22 .1-41 0-42.1-.3-2.1-.4-2.2-.6-2.1-28.4V19l41.8.1c31.2 0 41.8.3 42.1 1.2z"/><path d="M19 42.8c-1 1-2.2 3-2.5 4.7-.7 3-.7 3 1.2-.5 2.3-4.5 6.4-5.2 10-1.8 2.5 2.3 2.6 2.3 1.4.1-2.1-4-6.8-5.2-10.1-2.5zM40.5 42c-1.3 2.2-1.3 5.1.1 7.7.7 1.6 1.4 3.6 1.4 4.5 0 1.1.8 1.8 2.1 1.8 1.1 0 1.8-.4 1.5-.8-.2-.4.4-2.7 1.4-4.9 2.1-4.7 2-7-.1-8.4-1.9-1.2-5.6-1.1-6.4.1zm3.8 11.5c-.3.9-.8 1.4-1 1.1-.3-.3-.2-.9.2-1.5.9-1.6 1.5-1.3.8.4zM68.6 44.2c-.6 2-2.6 10.6-2.6 11.2 0 .3.4.6.9.6.6 0 1.3-2.1 1.7-4.8.3-2.6 1.1-5.5 1.6-6.5.6-1.1.5-1.7-.2-1.7-.6 0-1.2.6-1.4 1.2zM84.1 46.5c.1 4.7 1.1 6 4.7 6 1.7 0 3.2-.3 3.2-.7 0-1.2.1-1.6 1-4.9.7-2.3.6-2.8-.3-2.1-1.6 1.3-7 1.2-7.9-.2-.4-.6-.7.2-.7 1.9zM61 47.5L58.7 50l2.3 2c2.9 2.5 4.9 2.6 2.7.2-2.1-2.3-2.1-3.9-.1-5 1-.5 1.2-1.2.7-1.5-.6-.4-2 .5-3.3 1.8zM71 45.5c0 .2.9 1.3 2.1 2.4l2 1.9-2 1.4c-2.9 2-1.4 3.1 1.5 1.1 3-1.9 3-3 .2-5.4-2.2-1.8-3.8-2.4-3.8-1.4zM15.8 52.2c-.6 1.7.1 3.8 1.3 3.8.5 0 .9-1.1.9-2.5 0-2.6-1.4-3.4-2.2-1.3zM28 53.5c0 1.4.4 2.5.9 2.5s1.1-1.1 1.3-2.5c.4-1.7.1-2.5-.8-2.5-.8 0-1.4 1.1-1.4 2.5zM8.4 89.8c-6.6.6-8.7 8.3-2.6 9.9 1.5.3 23.9.7 49.9.7 44.5 0 47.3-.1 49.3-1.9 2.5-2.2 2.5-3.6.2-6.5l-1.8-2.2-46-.2c-25.2 0-47.3 0-49 .2z"/></svg>